<mxfile host="Electron" modified="2023-05-08T15:17:14.964Z" agent="Mozilla/5.0 (Windows NT 10.0; Win64; x64) AppleWebKit/537.36 (KHTML, like Gecko) draw.io/21.1.2 Chrome/106.0.5249.199 Electron/21.4.3 Safari/537.36" etag="Z5Io5_e_DGu-sPynpE-4" version="21.1.2" type="device">
  <diagram id="C5RBs43oDa-KdzZeNtuy" name="Page-1">
    <mxGraphModel dx="2353" dy="1265" grid="1" gridSize="10" guides="1" tooltips="1" connect="1" arrows="1" fold="1" page="1" pageScale="1" pageWidth="1654" pageHeight="1169" math="0" shadow="0">
      <root>
        <mxCell id="WIyWlLk6GJQsqaUBKTNV-0" />
        <mxCell id="WIyWlLk6GJQsqaUBKTNV-1" parent="WIyWlLk6GJQsqaUBKTNV-0" />
        <mxCell id="9_fdUrSxjmN1W93VfHhp-2" value="" style="rounded=0;whiteSpace=wrap;html=1;fillColor=#dae8fc;strokeColor=#6c8ebf;fontFamily=Verdana;" parent="WIyWlLk6GJQsqaUBKTNV-1" vertex="1">
          <mxGeometry x="1010" y="424" width="330" height="426" as="geometry" />
        </mxCell>
        <mxCell id="9_fdUrSxjmN1W93VfHhp-0" value="&lt;p style=&quot;margin:0px;margin-top:4px;text-align:center;&quot;&gt;&lt;i&gt;«enumeration»&lt;/i&gt;&lt;br&gt;&lt;b&gt;Unit&lt;/b&gt;&lt;/p&gt;&lt;hr size=&quot;1&quot;&gt;&lt;p style=&quot;margin:0px;margin-left:4px;&quot;&gt;&lt;br&gt;&lt;/p&gt;" style="verticalAlign=top;align=left;overflow=fill;fontSize=12;fontFamily=Verdana;html=1;sketch=0;strokeWidth=2;" parent="WIyWlLk6GJQsqaUBKTNV-1" vertex="1">
          <mxGeometry x="1170" y="451" width="130" height="80" as="geometry" />
        </mxCell>
        <mxCell id="9_fdUrSxjmN1W93VfHhp-12" value="&lt;p style=&quot;margin:0px;margin-top:4px;text-align:center;&quot;&gt;&lt;b&gt;Identifier&lt;/b&gt;&lt;/p&gt;&lt;hr size=&quot;1&quot;&gt;&lt;p style=&quot;margin:0px;margin-left:4px;&quot;&gt;&lt;br&gt;&lt;/p&gt;" style="verticalAlign=top;align=left;overflow=fill;fontSize=12;fontFamily=Verdana;html=1;sketch=0;strokeWidth=2;" parent="WIyWlLk6GJQsqaUBKTNV-1" vertex="1">
          <mxGeometry x="1030" y="697.5" width="110" height="70" as="geometry" />
        </mxCell>
        <mxCell id="A5fvS7BDDAw0l9XVEY4Y-33" value="&lt;p style=&quot;margin:0px;margin-top:4px;text-align:center;&quot;&gt;&lt;b&gt;EnumeratedItem&lt;/b&gt;&lt;/p&gt;&lt;hr size=&quot;1&quot;&gt;&lt;p style=&quot;margin:0px;margin-left:4px;&quot;&gt;&lt;br&gt;&lt;/p&gt;" style="verticalAlign=top;align=left;overflow=fill;fontSize=12;fontFamily=Verdana;html=1;sketch=0;strokeWidth=2;" parent="WIyWlLk6GJQsqaUBKTNV-1" vertex="1">
          <mxGeometry x="1170" y="666.75" width="140" height="74.75" as="geometry" />
        </mxCell>
        <mxCell id="A5fvS7BDDAw0l9XVEY4Y-54" value="&lt;p style=&quot;margin:0px;margin-top:4px;text-align:center;&quot;&gt;&lt;b&gt;LocalUnit&lt;/b&gt;&lt;/p&gt;&lt;hr size=&quot;1&quot;&gt;&lt;p style=&quot;margin:0px;margin-left:4px;&quot;&gt;&amp;nbsp;&lt;br&gt;&lt;/p&gt;&lt;hr size=&quot;1&quot;&gt;&lt;p style=&quot;margin:0px;margin-left:4px;&quot;&gt;&lt;br&gt;&lt;/p&gt;" style="verticalAlign=top;align=left;overflow=fill;fontSize=12;fontFamily=Verdana;html=1;sketch=0;strokeWidth=2;" parent="WIyWlLk6GJQsqaUBKTNV-1" vertex="1">
          <mxGeometry x="1030" y="451" width="110" height="90" as="geometry" />
        </mxCell>
        <mxCell id="A5fvS7BDDAw0l9XVEY4Y-61" value="" style="endArrow=classic;html=1;sketch=0;fontFamily=Verdana;curved=1;" parent="WIyWlLk6GJQsqaUBKTNV-1" source="A5fvS7BDDAw0l9XVEY4Y-54" target="Fh2eQYCEiK_2gspSJ3Qt-0" edge="1">
          <mxGeometry width="50" height="50" relative="1" as="geometry">
            <mxPoint x="1205" y="1035" as="sourcePoint" />
            <mxPoint x="1119.72" y="590.336" as="targetPoint" />
          </mxGeometry>
        </mxCell>
        <mxCell id="A5fvS7BDDAw0l9XVEY4Y-96" value="" style="swimlane;startSize=0;sketch=0;fontFamily=Verdana;strokeWidth=2;" parent="WIyWlLk6GJQsqaUBKTNV-1" vertex="1">
          <mxGeometry x="30" y="60" width="228.3" height="100" as="geometry" />
        </mxCell>
        <mxCell id="9_fdUrSxjmN1W93VfHhp-1" value="&lt;h1&gt;&lt;span style=&quot;background-color: initial;&quot;&gt;eCH-0262&lt;/span&gt;&lt;/h1&gt;&lt;div&gt;&lt;br&gt;&lt;/div&gt;" style="text;html=1;strokeColor=none;fillColor=none;spacing=5;spacingTop=-20;whiteSpace=wrap;overflow=hidden;rounded=0;strokeWidth=2;fontFamily=Verdana;" parent="A5fvS7BDDAw0l9XVEY4Y-96" vertex="1">
          <mxGeometry x="15.3" width="195.7" height="80" as="geometry" />
        </mxCell>
        <mxCell id="A5fvS7BDDAw0l9XVEY4Y-100" value="Farm Data and Application&lt;br&gt;of Products" style="text;html=1;strokeColor=none;fillColor=none;align=left;verticalAlign=middle;whiteSpace=wrap;rounded=0;strokeWidth=2;fontFamily=Verdana;" parent="A5fvS7BDDAw0l9XVEY4Y-96" vertex="1">
          <mxGeometry x="23.6" y="50" width="226.4" height="30" as="geometry" />
        </mxCell>
        <mxCell id="A5fvS7BDDAw0l9XVEY4Y-97" value="For Visualisation Purposes Only&lt;br&gt;Not purely correct UML!&lt;br&gt;1-1 correspondence to XSD does &lt;br&gt;not exist.&lt;br&gt;(e.g. XSD use will be using &quot;choice,&lt;br&gt;not inheritence or interface)&lt;br&gt;&lt;br&gt;Default Cardinality: 1&lt;br&gt;Attributes not depicted by default" style="text;html=1;strokeColor=none;fillColor=none;align=left;verticalAlign=middle;whiteSpace=wrap;rounded=0;strokeWidth=2;fontFamily=Verdana;" parent="WIyWlLk6GJQsqaUBKTNV-1" vertex="1">
          <mxGeometry x="268.57000000000005" y="107" width="450" height="30" as="geometry" />
        </mxCell>
        <mxCell id="3pSlS8YH4z9lj6zPETBl-3" value="" style="rounded=0;whiteSpace=wrap;html=1;fillColor=#dae8fc;strokeColor=#6c8ebf;fontFamily=Verdana;" parent="WIyWlLk6GJQsqaUBKTNV-1" vertex="1">
          <mxGeometry x="462" y="857" width="730.5" height="180" as="geometry" />
        </mxCell>
        <mxCell id="3pSlS8YH4z9lj6zPETBl-47" value="&lt;p style=&quot;margin:0px;margin-top:4px;text-align:center;&quot;&gt;&lt;b&gt;Person&lt;/b&gt;&lt;/p&gt;&lt;hr size=&quot;1&quot;&gt;&lt;p style=&quot;margin:0px;margin-left:4px;&quot;&gt;&amp;nbsp;&lt;br&gt;&lt;/p&gt;&lt;hr size=&quot;1&quot;&gt;&lt;p style=&quot;margin:0px;margin-left:4px;&quot;&gt;&lt;br&gt;&lt;/p&gt;" style="verticalAlign=top;align=left;overflow=fill;fontSize=12;fontFamily=Verdana;html=1;sketch=0;strokeWidth=2;" parent="WIyWlLk6GJQsqaUBKTNV-1" vertex="1">
          <mxGeometry x="1170" y="561" width="130" height="90" as="geometry" />
        </mxCell>
        <mxCell id="31RmMGNtrucp_WwvdCh7-1" value="&lt;p style=&quot;margin:0px;margin-top:4px;text-align:center;&quot;&gt;&lt;i&gt;«enumeration»&lt;/i&gt;&lt;br&gt;&lt;b&gt;StorageType&lt;/b&gt;&lt;/p&gt;&lt;hr size=&quot;1&quot;&gt;&lt;p style=&quot;margin:0px;margin-left:4px;&quot;&gt;+ item: EnumeratedItem&lt;br&gt;&lt;/p&gt;&lt;hr size=&quot;1&quot;&gt;&lt;p style=&quot;margin:0px;margin-left:4px;&quot;&gt;&lt;br&gt;&lt;/p&gt;" style="verticalAlign=top;align=left;overflow=fill;fontSize=12;fontFamily=Verdana;html=1;sketch=0;strokeWidth=2;" parent="WIyWlLk6GJQsqaUBKTNV-1" vertex="1">
          <mxGeometry x="41.510000000000005" y="173.25" width="180" height="77.5" as="geometry" />
        </mxCell>
        <mxCell id="fq_hDrngQvyFMPAxzldU-2" value="" style="rounded=0;whiteSpace=wrap;html=1;fillColor=#dae8fc;strokeColor=#6c8ebf;fontFamily=Verdana;" parent="WIyWlLk6GJQsqaUBKTNV-1" vertex="1">
          <mxGeometry x="746" y="60" width="334" height="340" as="geometry" />
        </mxCell>
        <mxCell id="fq_hDrngQvyFMPAxzldU-3" value="eCH-0266 Animals" style="text;html=1;strokeColor=none;fillColor=none;align=left;verticalAlign=middle;whiteSpace=wrap;rounded=0;strokeWidth=2;fontFamily=Verdana;" parent="WIyWlLk6GJQsqaUBKTNV-1" vertex="1">
          <mxGeometry x="761" y="60" width="290" height="30" as="geometry" />
        </mxCell>
        <mxCell id="fq_hDrngQvyFMPAxzldU-5" value="&lt;p style=&quot;margin:0px;margin-top:4px;text-align:center;&quot;&gt;&lt;b&gt;AnimalGroup&lt;/b&gt;&lt;/p&gt;&lt;hr size=&quot;1&quot;&gt;&lt;p style=&quot;margin:0px;margin-left:4px;&quot;&gt;&amp;nbsp;&amp;nbsp;&lt;br&gt;&lt;/p&gt;&lt;hr size=&quot;1&quot;&gt;&lt;p style=&quot;margin:0px;margin-left:4px;&quot;&gt;&lt;br&gt;&lt;/p&gt;" style="verticalAlign=top;align=left;overflow=fill;fontSize=12;fontFamily=Verdana;html=1;sketch=0;strokeWidth=2;" parent="WIyWlLk6GJQsqaUBKTNV-1" vertex="1">
          <mxGeometry x="779.25" y="90" width="122.5" height="70" as="geometry" />
        </mxCell>
        <mxCell id="fq_hDrngQvyFMPAxzldU-6" value="&lt;p style=&quot;margin:0px;margin-top:4px;text-align:center;&quot;&gt;&lt;b style=&quot;background-color: initial;&quot;&gt;Husbandry&lt;/b&gt;&lt;br&gt;&lt;/p&gt;&lt;hr size=&quot;1&quot;&gt;&lt;p style=&quot;margin:0px;margin-left:4px;&quot;&gt;+ item: EnumeratedItem&lt;br&gt;&lt;/p&gt;&lt;hr size=&quot;1&quot;&gt;&lt;p style=&quot;margin:0px;margin-left:4px;&quot;&gt;&lt;br&gt;&lt;/p&gt;" style="verticalAlign=top;align=left;overflow=fill;fontSize=12;fontFamily=Verdana;html=1;sketch=0;strokeWidth=2;" parent="WIyWlLk6GJQsqaUBKTNV-1" vertex="1">
          <mxGeometry x="1100" y="72" width="180" height="100" as="geometry" />
        </mxCell>
        <mxCell id="fq_hDrngQvyFMPAxzldU-7" value="" style="rounded=0;whiteSpace=wrap;html=1;fillColor=#dae8fc;strokeColor=#6c8ebf;fontFamily=Verdana;" parent="WIyWlLk6GJQsqaUBKTNV-1" vertex="1">
          <mxGeometry x="26" y="357" width="424" height="680" as="geometry" />
        </mxCell>
        <mxCell id="fq_hDrngQvyFMPAxzldU-8" value="&lt;p style=&quot;margin:0px;margin-top:4px;text-align:center;&quot;&gt;&lt;b&gt;Manure&lt;/b&gt;&lt;b style=&quot;background-color: initial;&quot;&gt;Recycling&lt;/b&gt;&lt;/p&gt;&lt;p style=&quot;margin:0px;margin-top:4px;text-align:center;&quot;&gt;&lt;b style=&quot;background-color: initial;&quot;&gt;Product&lt;/b&gt;&lt;/p&gt;&lt;hr size=&quot;1&quot;&gt;&lt;p style=&quot;margin:0px;margin-left:4px;&quot;&gt;&amp;nbsp;&lt;br&gt;&lt;/p&gt;&lt;hr size=&quot;1&quot;&gt;&lt;p style=&quot;margin:0px;margin-left:4px;&quot;&gt;&lt;br&gt;&lt;/p&gt;" style="verticalAlign=top;align=left;overflow=fill;fontSize=12;fontFamily=Verdana;html=1;sketch=0;strokeWidth=2;" parent="WIyWlLk6GJQsqaUBKTNV-1" vertex="1">
          <mxGeometry x="258.3" y="800" width="154.23" height="85" as="geometry" />
        </mxCell>
        <mxCell id="fq_hDrngQvyFMPAxzldU-9" value="eCH-0264 Products" style="text;html=1;strokeColor=none;fillColor=none;align=left;verticalAlign=middle;whiteSpace=wrap;rounded=0;strokeWidth=2;fontFamily=Verdana;" parent="WIyWlLk6GJQsqaUBKTNV-1" vertex="1">
          <mxGeometry x="32.35000000000002" y="357" width="290" height="30" as="geometry" />
        </mxCell>
        <mxCell id="fq_hDrngQvyFMPAxzldU-10" value="&lt;p style=&quot;margin:0px;margin-top:4px;text-align:center;&quot;&gt;&lt;b&gt;PlantProtection&lt;/b&gt;&lt;/p&gt;&lt;p style=&quot;margin:0px;margin-top:4px;text-align:center;&quot;&gt;&lt;b style=&quot;background-color: initial;&quot;&gt;Product&lt;/b&gt;&lt;br&gt;&lt;/p&gt;&lt;hr size=&quot;1&quot;&gt;&lt;p style=&quot;margin:0px;margin-left:4px;&quot;&gt;&amp;nbsp;&lt;br&gt;&lt;/p&gt;&lt;hr size=&quot;1&quot;&gt;&lt;p style=&quot;margin:0px;margin-left:4px;&quot;&gt;&lt;br&gt;&lt;/p&gt;" style="verticalAlign=top;align=left;overflow=fill;fontSize=12;fontFamily=Verdana;html=1;sketch=0;strokeWidth=2;" parent="WIyWlLk6GJQsqaUBKTNV-1" vertex="1">
          <mxGeometry x="84.15" y="612.5" width="120" height="85" as="geometry" />
        </mxCell>
        <mxCell id="fq_hDrngQvyFMPAxzldU-11" value="&lt;p style=&quot;margin:0px;margin-top:4px;text-align:center;&quot;&gt;&lt;b&gt;Feedstuff&lt;/b&gt;&lt;/p&gt;&lt;hr size=&quot;1&quot;&gt;&lt;p style=&quot;margin:0px;margin-left:4px;&quot;&gt;&amp;nbsp;&lt;br&gt;&lt;/p&gt;&lt;hr size=&quot;1&quot;&gt;&lt;p style=&quot;margin:0px;margin-left:4px;&quot;&gt;&lt;br&gt;&lt;/p&gt;" style="verticalAlign=top;align=left;overflow=fill;fontSize=12;fontFamily=Verdana;html=1;sketch=0;strokeWidth=2;" parent="WIyWlLk6GJQsqaUBKTNV-1" vertex="1">
          <mxGeometry x="319.75" y="378.75" width="97.6" height="67.25" as="geometry" />
        </mxCell>
        <mxCell id="fq_hDrngQvyFMPAxzldU-132" style="edgeStyle=elbowEdgeStyle;rounded=0;orthogonalLoop=1;jettySize=auto;html=1;exitX=0;exitY=0.25;exitDx=0;exitDy=0;fontFamily=Verdana;endArrow=block;endFill=0;" parent="WIyWlLk6GJQsqaUBKTNV-1" source="fq_hDrngQvyFMPAxzldU-14" edge="1">
          <mxGeometry relative="1" as="geometry">
            <mxPoint x="573" y="364.14285714285734" as="targetPoint" />
          </mxGeometry>
        </mxCell>
        <mxCell id="fq_hDrngQvyFMPAxzldU-14" value="&lt;p style=&quot;margin:0px;margin-top:4px;text-align:center;&quot;&gt;&lt;b style=&quot;background-color: initial;&quot;&gt;Feedstuff&lt;/b&gt;&lt;br&gt;&lt;/p&gt;&lt;p style=&quot;margin:0px;margin-top:4px;text-align:center;&quot;&gt;&lt;b&gt;Application&lt;/b&gt;&lt;/p&gt;&lt;p style=&quot;margin:0px;margin-left:4px;&quot;&gt;&amp;nbsp;&amp;nbsp;&lt;br&gt;&lt;/p&gt;&lt;hr size=&quot;1&quot;&gt;&lt;p style=&quot;margin:0px;margin-left:4px;&quot;&gt;&lt;br&gt;&lt;/p&gt;" style="verticalAlign=top;align=left;overflow=fill;fontSize=12;fontFamily=Verdana;html=1;sketch=0;strokeWidth=2;" parent="WIyWlLk6GJQsqaUBKTNV-1" vertex="1">
          <mxGeometry x="538" y="341.35" width="130" height="90" as="geometry" />
        </mxCell>
        <mxCell id="fq_hDrngQvyFMPAxzldU-15" value="" style="endArrow=classic;html=1;sketch=0;fontFamily=Verdana;curved=1;exitX=-0.007;exitY=0.821;exitDx=0;exitDy=0;exitPerimeter=0;" parent="WIyWlLk6GJQsqaUBKTNV-1" source="fq_hDrngQvyFMPAxzldU-14" target="fq_hDrngQvyFMPAxzldU-11" edge="1">
          <mxGeometry width="50" height="50" relative="1" as="geometry">
            <mxPoint x="499" y="391.9112488306828" as="sourcePoint" />
            <mxPoint x="1307.9875239923226" y="870" as="targetPoint" />
          </mxGeometry>
        </mxCell>
        <mxCell id="fq_hDrngQvyFMPAxzldU-20" value="&lt;p style=&quot;margin:0px;margin-top:4px;text-align:center;&quot;&gt;&lt;i&gt;«interface»&lt;/i&gt;&lt;/p&gt;&lt;p style=&quot;margin:0px;margin-top:4px;text-align:center;&quot;&gt;&lt;b&gt;Application&lt;/b&gt;&lt;/p&gt;&lt;p style=&quot;margin:0px;margin-top:4px;text-align:center;&quot;&gt;&lt;b style=&quot;background-color: initial;&quot;&gt;Product&lt;/b&gt;&lt;b style=&quot;background-color: initial;&quot;&gt;ToCrop&lt;/b&gt;&lt;/p&gt;&lt;hr size=&quot;1&quot;&gt;&lt;p style=&quot;margin:0px;margin-left:4px;&quot;&gt;&lt;/p&gt;&lt;p style=&quot;margin:0px;margin-left:4px;&quot;&gt;&lt;br&gt;&lt;/p&gt;" style="verticalAlign=top;align=left;overflow=fill;fontSize=12;fontFamily=Verdana;html=1;sketch=0;strokeWidth=2;" parent="WIyWlLk6GJQsqaUBKTNV-1" vertex="1">
          <mxGeometry x="493" y="715" width="155.5" height="83.5" as="geometry" />
        </mxCell>
        <mxCell id="fq_hDrngQvyFMPAxzldU-25" value="&lt;p style=&quot;margin:0px;margin-top:4px;text-align:center;&quot;&gt;&lt;b&gt;&lt;i&gt;AbstractProduct&lt;/i&gt;&lt;/b&gt;&lt;/p&gt;&lt;p style=&quot;margin:0px;margin-top:4px;text-align:center;&quot;&gt;&lt;b&gt;&lt;i&gt;Application&lt;/i&gt;&lt;/b&gt;&lt;/p&gt;&lt;hr size=&quot;1&quot;&gt;&lt;p style=&quot;margin:0px;margin-left:4px;&quot;&gt;&amp;nbsp;+ quantity: Unit&lt;span style=&quot;background-color: initial;&quot;&gt;&amp;nbsp;&lt;/span&gt;&lt;/p&gt;&lt;hr size=&quot;1&quot;&gt;&lt;p style=&quot;margin:0px;margin-left:4px;&quot;&gt;&lt;br&gt;&lt;/p&gt;" style="verticalAlign=top;align=left;overflow=fill;fontSize=12;fontFamily=Verdana;html=1;sketch=0;strokeWidth=2;" parent="WIyWlLk6GJQsqaUBKTNV-1" vertex="1">
          <mxGeometry x="770" y="420" width="158.5" height="83" as="geometry" />
        </mxCell>
        <mxCell id="fq_hDrngQvyFMPAxzldU-26" value="&lt;p style=&quot;margin:0px;margin-top:4px;text-align:center;&quot;&gt;&lt;b&gt;DressedSeed&lt;/b&gt;&lt;/p&gt;&lt;hr size=&quot;1&quot;&gt;&lt;p style=&quot;margin:0px;margin-left:4px;&quot;&gt;&amp;nbsp;&lt;br&gt;&lt;/p&gt;&lt;hr size=&quot;1&quot;&gt;&lt;p style=&quot;margin:0px;margin-left:4px;&quot;&gt;&lt;br&gt;&lt;/p&gt;" style="verticalAlign=top;align=left;overflow=fill;fontSize=12;fontFamily=Verdana;html=1;sketch=0;strokeWidth=2;" parent="WIyWlLk6GJQsqaUBKTNV-1" vertex="1">
          <mxGeometry x="130" y="515" width="117" height="70" as="geometry" />
        </mxCell>
        <mxCell id="fq_hDrngQvyFMPAxzldU-30" value="" style="endArrow=block;html=1;sketch=0;fontFamily=Verdana;curved=1;endFill=0;exitX=1.013;exitY=0.681;exitDx=0;exitDy=0;entryX=0;entryY=0.25;entryDx=0;entryDy=0;exitPerimeter=0;" parent="WIyWlLk6GJQsqaUBKTNV-1" source="fq_hDrngQvyFMPAxzldU-14" target="fq_hDrngQvyFMPAxzldU-25" edge="1">
          <mxGeometry width="50" height="50" relative="1" as="geometry">
            <mxPoint x="792.9972297297295" y="706.75" as="sourcePoint" />
            <mxPoint x="909.8299999999999" y="967.75" as="targetPoint" />
          </mxGeometry>
        </mxCell>
        <mxCell id="fq_hDrngQvyFMPAxzldU-39" value="" style="endArrow=classic;html=1;sketch=0;fontFamily=Verdana;curved=1;exitX=0.002;exitY=0.888;exitDx=0;exitDy=0;exitPerimeter=0;" parent="WIyWlLk6GJQsqaUBKTNV-1" source="fq_hDrngQvyFMPAxzldU-25" target="fq_hDrngQvyFMPAxzldU-38" edge="1">
          <mxGeometry width="50" height="50" relative="1" as="geometry">
            <mxPoint x="731.75" y="557" as="sourcePoint" />
            <mxPoint x="988.7749604995861" y="765" as="targetPoint" />
          </mxGeometry>
        </mxCell>
        <mxCell id="fq_hDrngQvyFMPAxzldU-43" value="&lt;p style=&quot;margin:0px;margin-top:4px;text-align:center;&quot;&gt;&lt;i&gt;«enumeration»&lt;/i&gt;&lt;br&gt;&lt;b&gt;StallSystem&lt;/b&gt;&lt;/p&gt;&lt;hr size=&quot;1&quot;&gt;&lt;p style=&quot;margin:0px;margin-left:4px;&quot;&gt;+ item: EnumeratedItem&lt;br&gt;&lt;/p&gt;&lt;hr size=&quot;1&quot;&gt;&lt;p style=&quot;margin:0px;margin-left:4px;&quot;&gt;&lt;br&gt;&lt;/p&gt;" style="verticalAlign=top;align=left;overflow=fill;fontSize=12;fontFamily=Verdana;html=1;sketch=0;strokeWidth=2;" parent="WIyWlLk6GJQsqaUBKTNV-1" vertex="1">
          <mxGeometry x="1145" y="207.00000000000006" width="180" height="77.5" as="geometry" />
        </mxCell>
        <mxCell id="fq_hDrngQvyFMPAxzldU-45" value="&lt;p style=&quot;margin:0px;margin-top:4px;text-align:center;&quot;&gt;&lt;b&gt;Storage&lt;/b&gt;&lt;/p&gt;&lt;hr size=&quot;1&quot;&gt;&lt;p style=&quot;margin:0px;margin-left:4px;&quot;&gt;&amp;nbsp; + location: LocalUnit&lt;br&gt;&lt;/p&gt;&lt;hr size=&quot;1&quot;&gt;&lt;p style=&quot;margin:0px;margin-left:4px;&quot;&gt;&lt;br&gt;&lt;/p&gt;" style="verticalAlign=top;align=left;overflow=fill;fontSize=12;fontFamily=Verdana;html=1;sketch=0;strokeWidth=2;" parent="WIyWlLk6GJQsqaUBKTNV-1" vertex="1">
          <mxGeometry x="268.57000000000005" y="222.5" width="180" height="77.5" as="geometry" />
        </mxCell>
        <mxCell id="fq_hDrngQvyFMPAxzldU-55" value="&lt;p style=&quot;margin:0px;margin-top:4px;text-align:center;&quot;&gt;&lt;b&gt;&lt;i&gt;AbstractProduct&lt;/i&gt;&lt;/b&gt;&lt;/p&gt;&lt;hr size=&quot;1&quot;&gt;&lt;p style=&quot;margin:0px;margin-left:4px;&quot;&gt;&amp;nbsp;&lt;br&gt;&lt;/p&gt;&lt;hr size=&quot;1&quot;&gt;&lt;p style=&quot;margin:0px;margin-left:4px;&quot;&gt;&lt;br&gt;&lt;/p&gt;" style="verticalAlign=top;align=left;overflow=fill;fontSize=12;fontFamily=Verdana;html=1;sketch=0;strokeWidth=2;" parent="WIyWlLk6GJQsqaUBKTNV-1" vertex="1">
          <mxGeometry x="50.8" y="406.35" width="128.7" height="85" as="geometry" />
        </mxCell>
        <mxCell id="fq_hDrngQvyFMPAxzldU-58" value="" style="endArrow=classic;html=1;sketch=0;fontFamily=Verdana;curved=1;" parent="WIyWlLk6GJQsqaUBKTNV-1" source="fq_hDrngQvyFMPAxzldU-45" target="31RmMGNtrucp_WwvdCh7-1" edge="1">
          <mxGeometry width="50" height="50" relative="1" as="geometry">
            <mxPoint x="1093" y="611" as="sourcePoint" />
            <mxPoint x="1093" y="489.17999999999984" as="targetPoint" />
          </mxGeometry>
        </mxCell>
        <mxCell id="fq_hDrngQvyFMPAxzldU-60" value="&lt;p style=&quot;margin:0px;margin-top:4px;text-align:center;&quot;&gt;&lt;b&gt;BiologicalAnimal&lt;/b&gt;&lt;/p&gt;&lt;hr size=&quot;1&quot;&gt;&lt;p style=&quot;margin:0px;margin-left:4px;&quot;&gt;&amp;nbsp;&amp;nbsp;&lt;br&gt;&lt;/p&gt;&lt;hr size=&quot;1&quot;&gt;&lt;p style=&quot;margin:0px;margin-left:4px;&quot;&gt;&lt;br&gt;&lt;/p&gt;" style="verticalAlign=top;align=left;overflow=fill;fontSize=12;fontFamily=Verdana;html=1;sketch=0;strokeWidth=2;" parent="WIyWlLk6GJQsqaUBKTNV-1" vertex="1">
          <mxGeometry x="910" y="187" width="122.5" height="70" as="geometry" />
        </mxCell>
        <mxCell id="fq_hDrngQvyFMPAxzldU-65" value="" style="endArrow=block;html=1;sketch=0;fontFamily=Verdana;curved=1;endFill=0;entryX=1;entryY=0.5;entryDx=0;entryDy=0;" parent="WIyWlLk6GJQsqaUBKTNV-1" source="fq_hDrngQvyFMPAxzldU-11" target="fq_hDrngQvyFMPAxzldU-55" edge="1">
          <mxGeometry width="50" height="50" relative="1" as="geometry">
            <mxPoint x="495.3299999999999" y="632.6799999999998" as="sourcePoint" />
            <mxPoint x="487.6384872080089" y="604.75" as="targetPoint" />
          </mxGeometry>
        </mxCell>
        <mxCell id="fq_hDrngQvyFMPAxzldU-67" value="" style="endArrow=block;html=1;sketch=0;fontFamily=Verdana;curved=1;endFill=0;exitX=0.25;exitY=0;exitDx=0;exitDy=0;entryX=0.299;entryY=0.991;entryDx=0;entryDy=0;entryPerimeter=0;" parent="WIyWlLk6GJQsqaUBKTNV-1" source="fq_hDrngQvyFMPAxzldU-10" target="fq_hDrngQvyFMPAxzldU-55" edge="1">
          <mxGeometry width="50" height="50" relative="1" as="geometry">
            <mxPoint x="191.30000000000018" y="511" as="sourcePoint" />
            <mxPoint x="93" y="487" as="targetPoint" />
          </mxGeometry>
        </mxCell>
        <mxCell id="fq_hDrngQvyFMPAxzldU-69" value="" style="endArrow=block;html=1;sketch=0;fontFamily=Verdana;curved=1;endFill=0;exitX=0.098;exitY=-0.03;exitDx=0;exitDy=0;exitPerimeter=0;" parent="WIyWlLk6GJQsqaUBKTNV-1" source="fq_hDrngQvyFMPAxzldU-26" target="fq_hDrngQvyFMPAxzldU-55" edge="1">
          <mxGeometry width="50" height="50" relative="1" as="geometry">
            <mxPoint x="249.1293741499003" y="709.8800000000001" as="sourcePoint" />
            <mxPoint x="170.62000000000035" y="469.3249999999998" as="targetPoint" />
          </mxGeometry>
        </mxCell>
        <mxCell id="Fh2eQYCEiK_2gspSJ3Qt-0" value="&lt;p style=&quot;margin:0px;margin-top:4px;text-align:center;&quot;&gt;&lt;b&gt;LegalUnit&lt;/b&gt;&lt;/p&gt;&lt;hr size=&quot;1&quot;&gt;&lt;p style=&quot;margin:0px;margin-left:4px;&quot;&gt;&amp;nbsp;&lt;br&gt;&lt;/p&gt;&lt;hr size=&quot;1&quot;&gt;&lt;p style=&quot;margin:0px;margin-left:4px;&quot;&gt;&lt;br&gt;&lt;/p&gt;" style="verticalAlign=top;align=left;overflow=fill;fontSize=12;fontFamily=Verdana;html=1;sketch=0;strokeWidth=2;" parent="WIyWlLk6GJQsqaUBKTNV-1" vertex="1">
          <mxGeometry x="1030" y="561" width="110" height="90" as="geometry" />
        </mxCell>
        <mxCell id="fq_hDrngQvyFMPAxzldU-38" value="&lt;p style=&quot;margin:0px;margin-top:4px;text-align:center;&quot;&gt;&lt;i&gt;«enumeration»&lt;/i&gt;&lt;br&gt;&lt;b&gt;Application&lt;/b&gt;&lt;b style=&quot;background-color: initial;&quot;&gt;Technology&lt;/b&gt;&lt;/p&gt;&lt;hr size=&quot;1&quot;&gt;&lt;p style=&quot;margin:0px;margin-left:4px;&quot;&gt;+ item: EnumeratedItem&lt;br&gt;&lt;/p&gt;&lt;hr size=&quot;1&quot;&gt;&lt;p style=&quot;margin:0px;margin-left:4px;&quot;&gt;&lt;br&gt;&lt;/p&gt;" style="verticalAlign=top;align=left;overflow=fill;fontSize=12;fontFamily=Verdana;html=1;sketch=0;strokeWidth=2;" parent="WIyWlLk6GJQsqaUBKTNV-1" vertex="1">
          <mxGeometry x="493" y="446" width="180" height="90" as="geometry" />
        </mxCell>
        <mxCell id="fq_hDrngQvyFMPAxzldU-75" value="&lt;p style=&quot;margin:0px;margin-top:4px;text-align:center;&quot;&gt;&lt;b&gt;Descriptor&lt;/b&gt;&lt;/p&gt;&lt;hr size=&quot;1&quot;&gt;&lt;p style=&quot;margin:0px;margin-left:4px;&quot;&gt;&lt;br&gt;&lt;/p&gt;" style="verticalAlign=top;align=left;overflow=fill;fontSize=12;fontFamily=Verdana;html=1;sketch=0;strokeWidth=2;" parent="WIyWlLk6GJQsqaUBKTNV-1" vertex="1">
          <mxGeometry x="1170" y="761" width="107.5" height="80" as="geometry" />
        </mxCell>
        <mxCell id="fq_hDrngQvyFMPAxzldU-76" value="eCH-0261 Local and Legal Units, Common" style="text;html=1;strokeColor=none;fillColor=none;align=left;verticalAlign=middle;whiteSpace=wrap;rounded=0;strokeWidth=2;fontFamily=Verdana;" parent="WIyWlLk6GJQsqaUBKTNV-1" vertex="1">
          <mxGeometry x="1032.5" y="420" width="290" height="30" as="geometry" />
        </mxCell>
        <mxCell id="fq_hDrngQvyFMPAxzldU-77" value="eCH-0265 Areas and Crops" style="text;html=1;strokeColor=none;fillColor=none;align=left;verticalAlign=middle;whiteSpace=wrap;rounded=0;strokeWidth=2;fontFamily=Verdana;" parent="WIyWlLk6GJQsqaUBKTNV-1" vertex="1">
          <mxGeometry x="928.5" y="1006" width="214.5" height="30" as="geometry" />
        </mxCell>
        <mxCell id="fq_hDrngQvyFMPAxzldU-80" value="" style="endArrow=classic;html=1;sketch=0;fontFamily=Verdana;curved=1;exitX=0;exitY=0.5;exitDx=0;exitDy=0;" parent="WIyWlLk6GJQsqaUBKTNV-1" source="A5fvS7BDDAw0l9XVEY4Y-33" target="9_fdUrSxjmN1W93VfHhp-12" edge="1">
          <mxGeometry width="50" height="50" relative="1" as="geometry">
            <mxPoint x="1361.45" y="791" as="sourcePoint" />
            <mxPoint x="1200.0000000000002" y="789" as="targetPoint" />
          </mxGeometry>
        </mxCell>
        <mxCell id="fq_hDrngQvyFMPAxzldU-83" value="" style="endArrow=classic;html=1;sketch=0;fontFamily=Verdana;curved=1;exitX=0.5;exitY=1;exitDx=0;exitDy=0;" parent="WIyWlLk6GJQsqaUBKTNV-1" source="A5fvS7BDDAw0l9XVEY4Y-33" target="fq_hDrngQvyFMPAxzldU-75" edge="1">
          <mxGeometry width="50" height="50" relative="1" as="geometry">
            <mxPoint x="1060" y="961" as="sourcePoint" />
            <mxPoint x="870.2008456659619" y="679.25" as="targetPoint" />
          </mxGeometry>
        </mxCell>
        <mxCell id="fq_hDrngQvyFMPAxzldU-90" value="&lt;p style=&quot;margin:0px;margin-top:4px;text-align:center;&quot;&gt;&lt;i&gt;«enumeration»&lt;/i&gt;&lt;br&gt;&lt;b&gt;Coverage&lt;/b&gt;&lt;/p&gt;&lt;hr size=&quot;1&quot;&gt;&lt;p style=&quot;margin:0px;margin-left:4px;&quot;&gt;+ item: EnumeratedItem&lt;br&gt;&lt;/p&gt;&lt;hr size=&quot;1&quot;&gt;&lt;p style=&quot;margin:0px;margin-left:4px;&quot;&gt;&lt;br&gt;&lt;/p&gt;" style="verticalAlign=top;align=left;overflow=fill;fontSize=12;fontFamily=Verdana;html=1;sketch=0;strokeWidth=2;" parent="WIyWlLk6GJQsqaUBKTNV-1" vertex="1">
          <mxGeometry x="29.680000000000007" y="267" width="154.75" height="78.91" as="geometry" />
        </mxCell>
        <mxCell id="fq_hDrngQvyFMPAxzldU-91" value="" style="endArrow=classic;html=1;sketch=0;fontFamily=Verdana;curved=1;" parent="WIyWlLk6GJQsqaUBKTNV-1" source="fq_hDrngQvyFMPAxzldU-45" target="fq_hDrngQvyFMPAxzldU-90" edge="1">
          <mxGeometry width="50" height="50" relative="1" as="geometry">
            <mxPoint x="211.29999999999995" y="287" as="sourcePoint" />
            <mxPoint x="303" y="267" as="targetPoint" />
          </mxGeometry>
        </mxCell>
        <mxCell id="fq_hDrngQvyFMPAxzldU-92" value="&lt;p style=&quot;margin:0px;margin-top:4px;text-align:center;&quot;&gt;&lt;b style=&quot;background-color: initial;&quot;&gt;Mineral&lt;/b&gt;&lt;/p&gt;&lt;p style=&quot;margin:0px;margin-top:4px;text-align:center;&quot;&gt;&lt;b style=&quot;background-color: initial;&quot;&gt;Product&lt;/b&gt;&lt;br&gt;&lt;/p&gt;&lt;hr size=&quot;1&quot;&gt;&lt;p style=&quot;margin:0px;margin-left:4px;&quot;&gt;&amp;nbsp;&lt;br&gt;&lt;/p&gt;&lt;hr size=&quot;1&quot;&gt;&lt;p style=&quot;margin:0px;margin-left:4px;&quot;&gt;&lt;br&gt;&lt;/p&gt;" style="verticalAlign=top;align=left;overflow=fill;fontSize=12;fontFamily=Verdana;html=1;sketch=0;strokeWidth=2;" parent="WIyWlLk6GJQsqaUBKTNV-1" vertex="1">
          <mxGeometry x="66.37" y="870" width="105.85" height="85" as="geometry" />
        </mxCell>
        <mxCell id="fq_hDrngQvyFMPAxzldU-93" value="&lt;p style=&quot;margin:0px;margin-top:4px;text-align:center;&quot;&gt;&lt;b&gt;&lt;i&gt;AbstractFertiliser&lt;/i&gt;&lt;/b&gt;&lt;/p&gt;&lt;hr size=&quot;1&quot;&gt;&lt;p style=&quot;margin:0px;margin-left:4px;&quot;&gt;&amp;nbsp;&lt;br&gt;&lt;/p&gt;&lt;hr size=&quot;1&quot;&gt;&lt;p style=&quot;margin:0px;margin-left:4px;&quot;&gt;&lt;br&gt;&lt;/p&gt;" style="verticalAlign=top;align=left;overflow=fill;fontSize=12;fontFamily=Verdana;html=1;sketch=0;strokeWidth=2;" parent="WIyWlLk6GJQsqaUBKTNV-1" vertex="1">
          <mxGeometry x="50.8" y="715" width="136.99" height="85" as="geometry" />
        </mxCell>
        <mxCell id="fq_hDrngQvyFMPAxzldU-95" value="" style="endArrow=block;html=1;sketch=0;fontFamily=Verdana;curved=1;endFill=0;" parent="WIyWlLk6GJQsqaUBKTNV-1" source="fq_hDrngQvyFMPAxzldU-92" target="fq_hDrngQvyFMPAxzldU-93" edge="1">
          <mxGeometry width="50" height="50" relative="1" as="geometry">
            <mxPoint x="13" y="777" as="sourcePoint" />
            <mxPoint x="425" y="598.02" as="targetPoint" />
          </mxGeometry>
        </mxCell>
        <mxCell id="fq_hDrngQvyFMPAxzldU-123" value="" style="endArrow=block;html=1;sketch=0;fontFamily=Verdana;curved=1;endFill=0;exitX=0.064;exitY=0;exitDx=0;exitDy=0;exitPerimeter=0;entryX=0.072;entryY=1.012;entryDx=0;entryDy=0;entryPerimeter=0;" parent="WIyWlLk6GJQsqaUBKTNV-1" source="fq_hDrngQvyFMPAxzldU-93" target="fq_hDrngQvyFMPAxzldU-55" edge="1">
          <mxGeometry width="50" height="50" relative="1" as="geometry">
            <mxPoint x="259.9000000000001" y="657" as="sourcePoint" />
            <mxPoint x="213.98000000000002" y="496.2849999999996" as="targetPoint" />
          </mxGeometry>
        </mxCell>
        <mxCell id="fq_hDrngQvyFMPAxzldU-125" value="" style="endArrow=classic;html=1;sketch=0;fontFamily=Verdana;curved=1;exitX=0.25;exitY=1;exitDx=0;exitDy=0;" parent="WIyWlLk6GJQsqaUBKTNV-1" source="fq_hDrngQvyFMPAxzldU-20" target="fq_hDrngQvyFMPAxzldU-135" edge="1">
          <mxGeometry width="50" height="50" relative="1" as="geometry">
            <mxPoint x="601.0040983606557" y="799" as="sourcePoint" />
            <mxPoint x="634.3516393442621" y="827" as="targetPoint" />
          </mxGeometry>
        </mxCell>
        <mxCell id="fq_hDrngQvyFMPAxzldU-129" style="edgeStyle=elbowEdgeStyle;rounded=0;orthogonalLoop=1;jettySize=auto;html=1;exitX=0.75;exitY=0;exitDx=0;exitDy=0;fontFamily=Verdana;endArrow=block;endFill=0;" parent="WIyWlLk6GJQsqaUBKTNV-1" source="fq_hDrngQvyFMPAxzldU-43" target="fq_hDrngQvyFMPAxzldU-43" edge="1">
          <mxGeometry relative="1" as="geometry" />
        </mxCell>
        <mxCell id="fq_hDrngQvyFMPAxzldU-130" value="" style="endArrow=classic;html=1;sketch=0;fontFamily=Verdana;curved=1;endFill=1;exitX=1.019;exitY=0.319;exitDx=0;exitDy=0;entryX=0;entryY=0.75;entryDx=0;entryDy=0;exitPerimeter=0;" parent="WIyWlLk6GJQsqaUBKTNV-1" source="fq_hDrngQvyFMPAxzldU-14" target="fq_hDrngQvyFMPAxzldU-143" edge="1">
          <mxGeometry width="50" height="50" relative="1" as="geometry">
            <mxPoint x="709.8368617683686" y="351.3499999999999" as="sourcePoint" />
            <mxPoint x="843" y="235.75" as="targetPoint" />
          </mxGeometry>
        </mxCell>
        <mxCell id="fq_hDrngQvyFMPAxzldU-135" value="&lt;p style=&quot;margin:0px;margin-top:4px;text-align:center;&quot;&gt;&lt;i&gt;«interface»&lt;/i&gt;&lt;br&gt;&lt;b&gt;Cultivatable&lt;/b&gt;&lt;/p&gt;&lt;hr size=&quot;1&quot;&gt;&lt;p style=&quot;margin:0px;margin-left:4px;&quot;&gt;&amp;nbsp;&lt;br&gt;&lt;/p&gt;&lt;hr size=&quot;1&quot;&gt;&lt;p style=&quot;margin:0px;margin-left:4px;&quot;&gt;&lt;br&gt;&lt;/p&gt;" style="verticalAlign=top;align=left;overflow=fill;fontSize=12;fontFamily=Verdana;html=1;sketch=0;strokeWidth=2;" parent="WIyWlLk6GJQsqaUBKTNV-1" vertex="1">
          <mxGeometry x="499" y="907" width="130" height="90" as="geometry" />
        </mxCell>
        <mxCell id="fq_hDrngQvyFMPAxzldU-136" value="" style="endArrow=block;html=1;sketch=0;fontFamily=Verdana;endFill=0;dashed=1;" parent="WIyWlLk6GJQsqaUBKTNV-1" source="fq_hDrngQvyFMPAxzldU-141" target="fq_hDrngQvyFMPAxzldU-135" edge="1">
          <mxGeometry width="50" height="50" relative="1" as="geometry">
            <mxPoint x="947.5061728395062" y="1032" as="sourcePoint" />
            <mxPoint x="1258" y="1047.0042145699" as="targetPoint" />
          </mxGeometry>
        </mxCell>
        <mxCell id="fq_hDrngQvyFMPAxzldU-142" value="&lt;p style=&quot;margin:0px;margin-top:4px;text-align:center;&quot;&gt;&lt;b&gt;CultivationType&lt;/b&gt;&lt;/p&gt;&lt;hr size=&quot;1&quot;&gt;&lt;p style=&quot;margin:0px;margin-left:4px;&quot;&gt;&amp;nbsp;&lt;br&gt;&lt;/p&gt;&lt;hr size=&quot;1&quot;&gt;&lt;p style=&quot;margin:0px;margin-left:4px;&quot;&gt;&lt;br&gt;&lt;/p&gt;" style="verticalAlign=top;align=left;overflow=fill;fontSize=12;fontFamily=Verdana;html=1;sketch=0;strokeWidth=2;" parent="WIyWlLk6GJQsqaUBKTNV-1" vertex="1">
          <mxGeometry x="850" y="907" width="130" height="90" as="geometry" />
        </mxCell>
        <mxCell id="fq_hDrngQvyFMPAxzldU-143" value="&lt;p style=&quot;margin:0px;margin-top:4px;text-align:center;&quot;&gt;&lt;i&gt;«interface»&lt;/i&gt;&lt;br&gt;&lt;b&gt;Animal&lt;/b&gt;&lt;/p&gt;&lt;hr size=&quot;1&quot;&gt;&lt;p style=&quot;margin:0px;margin-left:4px;&quot;&gt;&amp;nbsp;&lt;br&gt;&lt;/p&gt;&lt;hr size=&quot;1&quot;&gt;&lt;p style=&quot;margin:0px;margin-left:4px;&quot;&gt;&lt;br&gt;&lt;/p&gt;" style="verticalAlign=top;align=left;overflow=fill;fontSize=12;fontFamily=Verdana;html=1;sketch=0;strokeWidth=2;" parent="WIyWlLk6GJQsqaUBKTNV-1" vertex="1">
          <mxGeometry x="779.25" y="187" width="110" height="80" as="geometry" />
        </mxCell>
        <mxCell id="fq_hDrngQvyFMPAxzldU-145" value="" style="endArrow=block;html=1;sketch=0;fontFamily=Verdana;curved=1;endFill=0;dashed=1;exitX=0;exitY=0.5;exitDx=0;exitDy=0;" parent="WIyWlLk6GJQsqaUBKTNV-1" source="fq_hDrngQvyFMPAxzldU-60" target="fq_hDrngQvyFMPAxzldU-143" edge="1">
          <mxGeometry width="50" height="50" relative="1" as="geometry">
            <mxPoint x="1106.1964705882351" y="205" as="sourcePoint" />
            <mxPoint x="1076.0003921568627" y="170" as="targetPoint" />
          </mxGeometry>
        </mxCell>
        <mxCell id="fq_hDrngQvyFMPAxzldU-148" value="" style="endArrow=block;html=1;sketch=0;fontFamily=Verdana;curved=1;endFill=0;dashed=1;entryX=0.25;entryY=0;entryDx=0;entryDy=0;exitX=0.25;exitY=1;exitDx=0;exitDy=0;" parent="WIyWlLk6GJQsqaUBKTNV-1" source="fq_hDrngQvyFMPAxzldU-5" target="fq_hDrngQvyFMPAxzldU-143" edge="1">
          <mxGeometry width="50" height="50" relative="1" as="geometry">
            <mxPoint x="894.77" y="199.27999999999997" as="sourcePoint" />
            <mxPoint x="871" y="170" as="targetPoint" />
          </mxGeometry>
        </mxCell>
        <mxCell id="a3Yqsa4eIs0ynRs7VWnU-0" value="" style="endArrow=classic;html=1;sketch=0;fontFamily=Verdana;curved=1;" parent="WIyWlLk6GJQsqaUBKTNV-1" source="fq_hDrngQvyFMPAxzldU-45" target="fq_hDrngQvyFMPAxzldU-55" edge="1">
          <mxGeometry width="50" height="50" relative="1" as="geometry">
            <mxPoint x="603" y="281" as="sourcePoint" />
            <mxPoint x="893" y="480" as="targetPoint" />
          </mxGeometry>
        </mxCell>
        <mxCell id="yHlTKHoaQ9vVoxRMhvKe-0" value="or noCulture:String when crop&amp;nbsp; not (yet) standardised (use sparingly)" style="text;html=1;strokeColor=none;fillColor=none;align=left;verticalAlign=middle;whiteSpace=wrap;rounded=0;fontSize=11;" vertex="1" parent="WIyWlLk6GJQsqaUBKTNV-1">
          <mxGeometry x="499" y="1006" width="384" height="30" as="geometry" />
        </mxCell>
        <mxCell id="yHlTKHoaQ9vVoxRMhvKe-1" value="&lt;p style=&quot;margin:0px;margin-top:4px;text-align:center;&quot;&gt;&lt;span&gt;Area&lt;/span&gt;&lt;/p&gt;&lt;hr size=&quot;1&quot;&gt;&lt;p style=&quot;margin:0px;margin-left:4px;&quot;&gt;&amp;nbsp;&lt;br&gt;&lt;/p&gt;&lt;hr size=&quot;1&quot;&gt;&lt;p style=&quot;margin:0px;margin-left:4px;&quot;&gt;&lt;br&gt;&lt;/p&gt;" style="verticalAlign=top;align=left;overflow=fill;fontSize=12;fontFamily=Verdana;html=1;sketch=0;strokeWidth=2;fontStyle=1" vertex="1" parent="WIyWlLk6GJQsqaUBKTNV-1">
          <mxGeometry x="1032.5" y="885" width="130" height="90" as="geometry" />
        </mxCell>
        <mxCell id="yHlTKHoaQ9vVoxRMhvKe-2" value="" style="endArrow=classic;html=1;sketch=0;fontFamily=Verdana;curved=1;" edge="1" parent="WIyWlLk6GJQsqaUBKTNV-1" source="fq_hDrngQvyFMPAxzldU-20" target="yHlTKHoaQ9vVoxRMhvKe-1">
          <mxGeometry width="50" height="50" relative="1" as="geometry">
            <mxPoint x="639" y="774" as="sourcePoint" />
            <mxPoint x="626" y="805" as="targetPoint" />
          </mxGeometry>
        </mxCell>
        <mxCell id="yHlTKHoaQ9vVoxRMhvKe-4" value="" style="endArrow=block;html=1;sketch=0;fontFamily=Verdana;curved=1;endFill=0;exitX=0.007;exitY=0.419;exitDx=0;exitDy=0;exitPerimeter=0;" edge="1" parent="WIyWlLk6GJQsqaUBKTNV-1" source="fq_hDrngQvyFMPAxzldU-8" target="fq_hDrngQvyFMPAxzldU-93">
          <mxGeometry width="50" height="50" relative="1" as="geometry">
            <mxPoint x="123" y="867" as="sourcePoint" />
            <mxPoint x="123" y="842" as="targetPoint" />
          </mxGeometry>
        </mxCell>
        <mxCell id="yHlTKHoaQ9vVoxRMhvKe-5" value="&lt;p style=&quot;margin:0px;margin-top:4px;text-align:center;&quot;&gt;&lt;b&gt;Fertiliser&lt;/b&gt;&lt;/p&gt;&lt;hr size=&quot;1&quot;&gt;&lt;p style=&quot;margin:0px;margin-left:4px;&quot;&gt;&amp;nbsp;&lt;br&gt;&lt;/p&gt;&lt;hr size=&quot;1&quot;&gt;&lt;p style=&quot;margin:0px;margin-left:4px;&quot;&gt;&lt;br&gt;&lt;/p&gt;" style="verticalAlign=top;align=left;overflow=fill;fontSize=12;fontFamily=Verdana;html=1;sketch=0;strokeWidth=2;" vertex="1" parent="WIyWlLk6GJQsqaUBKTNV-1">
          <mxGeometry x="298.6" y="676" width="100" height="85" as="geometry" />
        </mxCell>
        <mxCell id="yHlTKHoaQ9vVoxRMhvKe-7" value="" style="endArrow=block;html=1;sketch=0;fontFamily=Verdana;curved=1;endFill=0;exitX=0;exitY=0.25;exitDx=0;exitDy=0;" edge="1" parent="WIyWlLk6GJQsqaUBKTNV-1" source="yHlTKHoaQ9vVoxRMhvKe-5" target="fq_hDrngQvyFMPAxzldU-93">
          <mxGeometry width="50" height="50" relative="1" as="geometry">
            <mxPoint x="252" y="963" as="sourcePoint" />
            <mxPoint x="176" y="777" as="targetPoint" />
          </mxGeometry>
        </mxCell>
        <mxCell id="yHlTKHoaQ9vVoxRMhvKe-9" value="&lt;p style=&quot;margin:0px;margin-top:4px;text-align:center;&quot;&gt;&lt;i&gt;«enumeration»&lt;/i&gt;&lt;br&gt;&lt;b&gt;Product&lt;/b&gt;&lt;b style=&quot;background-color: initial;&quot;&gt;Family&lt;/b&gt;&lt;/p&gt;&lt;hr size=&quot;1&quot;&gt;&lt;p style=&quot;margin:0px;margin-left:4px;&quot;&gt;+ item: EnumeratedItem&lt;br&gt;&lt;/p&gt;&lt;hr size=&quot;1&quot;&gt;&lt;p style=&quot;margin:0px;margin-left:4px;&quot;&gt;&lt;br&gt;&lt;/p&gt;" style="verticalAlign=top;align=left;overflow=fill;fontSize=12;fontFamily=Verdana;html=1;sketch=0;strokeWidth=2;" vertex="1" parent="WIyWlLk6GJQsqaUBKTNV-1">
          <mxGeometry x="265.77" y="481" width="165.65" height="79" as="geometry" />
        </mxCell>
        <mxCell id="yHlTKHoaQ9vVoxRMhvKe-11" value="" style="endArrow=classic;html=1;sketch=0;fontFamily=Verdana;curved=1;exitX=0;exitY=0.5;exitDx=0;exitDy=0;" edge="1" parent="WIyWlLk6GJQsqaUBKTNV-1" source="fq_hDrngQvyFMPAxzldU-38" target="yHlTKHoaQ9vVoxRMhvKe-9">
          <mxGeometry width="50" height="50" relative="1" as="geometry">
            <mxPoint x="496.65999999999985" y="836.55" as="sourcePoint" />
            <mxPoint x="562" y="805" as="targetPoint" />
          </mxGeometry>
        </mxCell>
        <mxCell id="yHlTKHoaQ9vVoxRMhvKe-13" value="" style="endArrow=classic;html=1;sketch=0;fontFamily=Verdana;curved=1;" edge="1" parent="WIyWlLk6GJQsqaUBKTNV-1" source="fq_hDrngQvyFMPAxzldU-6" target="fq_hDrngQvyFMPAxzldU-43">
          <mxGeometry width="50" height="50" relative="1" as="geometry">
            <mxPoint x="1010" y="337" as="sourcePoint" />
            <mxPoint x="382" y="432" as="targetPoint" />
          </mxGeometry>
        </mxCell>
        <mxCell id="yHlTKHoaQ9vVoxRMhvKe-14" value="0-1" style="text;html=1;strokeColor=none;fillColor=none;align=center;verticalAlign=middle;whiteSpace=wrap;rounded=0;" vertex="1" parent="WIyWlLk6GJQsqaUBKTNV-1">
          <mxGeometry x="1210" y="181.00000000000006" width="60" height="30" as="geometry" />
        </mxCell>
        <mxCell id="yHlTKHoaQ9vVoxRMhvKe-15" value="&lt;p style=&quot;margin:0px;margin-top:4px;text-align:center;&quot;&gt;&lt;i&gt;«enumeration»&lt;/i&gt;&lt;br&gt;&lt;b style=&quot;background-color: initial;&quot;&gt;HusbandryKind&lt;/b&gt;&lt;br&gt;&lt;/p&gt;&lt;hr size=&quot;1&quot;&gt;&lt;p style=&quot;margin:0px;margin-left:4px;&quot;&gt;+ item: EnumeratedItem&lt;br&gt;&lt;/p&gt;&lt;hr size=&quot;1&quot;&gt;&lt;p style=&quot;margin:0px;margin-left:4px;&quot;&gt;&lt;br&gt;&lt;/p&gt;" style="verticalAlign=top;align=left;overflow=fill;fontSize=12;fontFamily=Verdana;html=1;sketch=0;strokeWidth=2;" vertex="1" parent="WIyWlLk6GJQsqaUBKTNV-1">
          <mxGeometry x="1103" y="306.35" width="180" height="100" as="geometry" />
        </mxCell>
        <mxCell id="yHlTKHoaQ9vVoxRMhvKe-16" value="" style="endArrow=classic;html=1;sketch=0;fontFamily=Verdana;curved=1;entryX=0.079;entryY=0.017;entryDx=0;entryDy=0;entryPerimeter=0;exitX=0.068;exitY=0.99;exitDx=0;exitDy=0;exitPerimeter=0;" edge="1" parent="WIyWlLk6GJQsqaUBKTNV-1" source="fq_hDrngQvyFMPAxzldU-6" target="yHlTKHoaQ9vVoxRMhvKe-15">
          <mxGeometry width="50" height="50" relative="1" as="geometry">
            <mxPoint x="1020" y="347" as="sourcePoint" />
            <mxPoint x="964" y="352" as="targetPoint" />
          </mxGeometry>
        </mxCell>
        <mxCell id="yHlTKHoaQ9vVoxRMhvKe-20" value="0-1" style="text;html=1;strokeColor=none;fillColor=none;align=center;verticalAlign=middle;whiteSpace=wrap;rounded=0;" vertex="1" parent="WIyWlLk6GJQsqaUBKTNV-1">
          <mxGeometry x="980" y="877" width="60" height="30" as="geometry" />
        </mxCell>
        <mxCell id="yHlTKHoaQ9vVoxRMhvKe-21" value="&lt;p style=&quot;margin:0px;margin-top:4px;text-align:center;&quot;&gt;&lt;b style=&quot;background-color: initial;&quot;&gt;PlantProtection&lt;/b&gt;&lt;/p&gt;&lt;p style=&quot;margin:0px;margin-top:4px;text-align:center;&quot;&gt;&lt;b style=&quot;background-color: initial;&quot;&gt;Product&lt;/b&gt;&lt;/p&gt;&lt;p style=&quot;margin:0px;margin-top:4px;text-align:center;&quot;&gt;&lt;b&gt;Application&lt;/b&gt;&lt;/p&gt;&lt;hr size=&quot;1&quot;&gt;&lt;p style=&quot;margin:0px;margin-left:4px;&quot;&gt;&amp;nbsp;&lt;br&gt;&lt;/p&gt;&lt;hr size=&quot;1&quot;&gt;&lt;p style=&quot;margin:0px;margin-left:4px;&quot;&gt;&lt;br&gt;&lt;/p&gt;" style="verticalAlign=top;align=left;overflow=fill;fontSize=12;fontFamily=Verdana;html=1;sketch=0;strokeWidth=2;" vertex="1" parent="WIyWlLk6GJQsqaUBKTNV-1">
          <mxGeometry x="532.2499999999999" y="577" width="143" height="90" as="geometry" />
        </mxCell>
        <mxCell id="yHlTKHoaQ9vVoxRMhvKe-22" value="" style="endArrow=block;html=1;sketch=0;fontFamily=Verdana;curved=1;endFill=0;dashed=1;entryX=0.282;entryY=0.01;entryDx=0;entryDy=0;entryPerimeter=0;" edge="1" parent="WIyWlLk6GJQsqaUBKTNV-1" source="yHlTKHoaQ9vVoxRMhvKe-21" target="fq_hDrngQvyFMPAxzldU-20">
          <mxGeometry width="50" height="50" relative="1" as="geometry">
            <mxPoint x="383" y="940" as="sourcePoint" />
            <mxPoint x="382" y="782" as="targetPoint" />
          </mxGeometry>
        </mxCell>
        <mxCell id="yHlTKHoaQ9vVoxRMhvKe-24" value="" style="endArrow=classic;html=1;sketch=0;fontFamily=Verdana;curved=1;endFill=1;exitX=0;exitY=0.5;exitDx=0;exitDy=0;entryX=0.998;entryY=0.408;entryDx=0;entryDy=0;entryPerimeter=0;" edge="1" parent="WIyWlLk6GJQsqaUBKTNV-1" source="yHlTKHoaQ9vVoxRMhvKe-21" target="fq_hDrngQvyFMPAxzldU-10">
          <mxGeometry width="50" height="50" relative="1" as="geometry">
            <mxPoint x="621" y="340" as="sourcePoint" />
            <mxPoint x="210" y="567" as="targetPoint" />
          </mxGeometry>
        </mxCell>
        <mxCell id="yHlTKHoaQ9vVoxRMhvKe-25" value="" style="endArrow=classic;html=1;sketch=0;fontFamily=Verdana;curved=1;endFill=1;" edge="1" parent="WIyWlLk6GJQsqaUBKTNV-1" source="fq_hDrngQvyFMPAxzldU-26" target="fq_hDrngQvyFMPAxzldU-10">
          <mxGeometry width="50" height="50" relative="1" as="geometry">
            <mxPoint x="681" y="569" as="sourcePoint" />
            <mxPoint x="210" y="572" as="targetPoint" />
          </mxGeometry>
        </mxCell>
        <mxCell id="yHlTKHoaQ9vVoxRMhvKe-26" value="&lt;p style=&quot;margin:0px;margin-top:4px;text-align:center;&quot;&gt;&lt;b style=&quot;background-color: initial;&quot;&gt;ManureRecycling&lt;/b&gt;&lt;/p&gt;&lt;p style=&quot;margin:0px;margin-top:4px;text-align:center;&quot;&gt;&lt;b style=&quot;background-color: initial;&quot;&gt;Product&lt;/b&gt;&lt;/p&gt;&lt;p style=&quot;margin:0px;margin-top:4px;text-align:center;&quot;&gt;&lt;b&gt;Application&lt;/b&gt;&lt;/p&gt;&lt;hr size=&quot;1&quot;&gt;&lt;p style=&quot;margin:0px;margin-left:4px;&quot;&gt;&amp;nbsp;&lt;br&gt;&lt;/p&gt;&lt;hr size=&quot;1&quot;&gt;&lt;p style=&quot;margin:0px;margin-left:4px;&quot;&gt;&lt;br&gt;&lt;/p&gt;" style="verticalAlign=top;align=left;overflow=fill;fontSize=12;fontFamily=Verdana;html=1;sketch=0;strokeWidth=2;" vertex="1" parent="WIyWlLk6GJQsqaUBKTNV-1">
          <mxGeometry x="826" y="720" width="160" height="90.25" as="geometry" />
        </mxCell>
        <mxCell id="yHlTKHoaQ9vVoxRMhvKe-27" value="" style="endArrow=classic;html=1;sketch=0;fontFamily=Verdana;curved=1;exitX=0;exitY=0.75;exitDx=0;exitDy=0;entryX=1.004;entryY=0.684;entryDx=0;entryDy=0;entryPerimeter=0;" edge="1" parent="WIyWlLk6GJQsqaUBKTNV-1" source="yHlTKHoaQ9vVoxRMhvKe-26" target="fq_hDrngQvyFMPAxzldU-8">
          <mxGeometry width="50" height="50" relative="1" as="geometry">
            <mxPoint x="515" y="834" as="sourcePoint" />
            <mxPoint x="414" y="774" as="targetPoint" />
          </mxGeometry>
        </mxCell>
        <mxCell id="yHlTKHoaQ9vVoxRMhvKe-28" value="" style="endArrow=block;html=1;sketch=0;fontFamily=Verdana;curved=1;endFill=0;exitX=0.568;exitY=-0.047;exitDx=0;exitDy=0;exitPerimeter=0;entryX=0.75;entryY=1;entryDx=0;entryDy=0;" edge="1" parent="WIyWlLk6GJQsqaUBKTNV-1" source="yHlTKHoaQ9vVoxRMhvKe-26" target="fq_hDrngQvyFMPAxzldU-25">
          <mxGeometry width="50" height="50" relative="1" as="geometry">
            <mxPoint x="845" y="544" as="sourcePoint" />
            <mxPoint x="846" y="516" as="targetPoint" />
          </mxGeometry>
        </mxCell>
        <mxCell id="yHlTKHoaQ9vVoxRMhvKe-29" value="" style="endArrow=block;html=1;sketch=0;fontFamily=Verdana;curved=1;endFill=0;dashed=1;" edge="1" parent="WIyWlLk6GJQsqaUBKTNV-1" source="yHlTKHoaQ9vVoxRMhvKe-26" target="fq_hDrngQvyFMPAxzldU-20">
          <mxGeometry width="50" height="50" relative="1" as="geometry">
            <mxPoint x="717" y="637" as="sourcePoint" />
            <mxPoint x="540" y="857" as="targetPoint" />
          </mxGeometry>
        </mxCell>
        <mxCell id="yHlTKHoaQ9vVoxRMhvKe-31" value="" style="endArrow=block;html=1;sketch=0;fontFamily=Verdana;curved=1;endFill=0;exitX=0.546;exitY=0;exitDx=0;exitDy=0;exitPerimeter=0;entryX=0.22;entryY=1.001;entryDx=0;entryDy=0;entryPerimeter=0;" edge="1" parent="WIyWlLk6GJQsqaUBKTNV-1" source="yHlTKHoaQ9vVoxRMhvKe-21" target="fq_hDrngQvyFMPAxzldU-25">
          <mxGeometry width="50" height="50" relative="1" as="geometry">
            <mxPoint x="601" y="707" as="sourcePoint" />
            <mxPoint x="602" y="547" as="targetPoint" />
          </mxGeometry>
        </mxCell>
        <mxCell id="yHlTKHoaQ9vVoxRMhvKe-32" value="" style="endArrow=classic;html=1;sketch=0;fontFamily=Verdana;curved=1;endFill=1;exitX=1.001;exitY=0.322;exitDx=0;exitDy=0;entryX=0.01;entryY=0.157;entryDx=0;entryDy=0;entryPerimeter=0;exitPerimeter=0;" edge="1" parent="WIyWlLk6GJQsqaUBKTNV-1" source="fq_hDrngQvyFMPAxzldU-25" target="A5fvS7BDDAw0l9XVEY4Y-54">
          <mxGeometry width="50" height="50" relative="1" as="geometry">
            <mxPoint x="621" y="340" as="sourcePoint" />
            <mxPoint x="768" y="257" as="targetPoint" />
          </mxGeometry>
        </mxCell>
        <mxCell id="yHlTKHoaQ9vVoxRMhvKe-33" value="" style="endArrow=classic;html=1;sketch=0;fontFamily=Verdana;curved=1;endFill=1;exitX=1;exitY=0.75;exitDx=0;exitDy=0;entryX=0;entryY=0.25;entryDx=0;entryDy=0;" edge="1" parent="WIyWlLk6GJQsqaUBKTNV-1" source="fq_hDrngQvyFMPAxzldU-25" target="Fh2eQYCEiK_2gspSJ3Qt-0">
          <mxGeometry width="50" height="50" relative="1" as="geometry">
            <mxPoint x="910" y="463" as="sourcePoint" />
            <mxPoint x="1004" y="475" as="targetPoint" />
          </mxGeometry>
        </mxCell>
        <mxCell id="yHlTKHoaQ9vVoxRMhvKe-34" value="location" style="text;html=1;strokeColor=none;fillColor=none;align=center;verticalAlign=middle;whiteSpace=wrap;rounded=0;" vertex="1" parent="WIyWlLk6GJQsqaUBKTNV-1">
          <mxGeometry x="936.57" y="424" width="60" height="30" as="geometry" />
        </mxCell>
        <mxCell id="yHlTKHoaQ9vVoxRMhvKe-35" value="appliedBy" style="text;html=1;strokeColor=none;fillColor=none;align=center;verticalAlign=middle;whiteSpace=wrap;rounded=0;" vertex="1" parent="WIyWlLk6GJQsqaUBKTNV-1">
          <mxGeometry x="948" y="481" width="60" height="30" as="geometry" />
        </mxCell>
        <mxCell id="yHlTKHoaQ9vVoxRMhvKe-36" value="&lt;p style=&quot;margin:0px;margin-top:4px;text-align:center;&quot;&gt;&lt;b style=&quot;background-color: initial;&quot;&gt;Fertiliser&lt;/b&gt;&lt;/p&gt;&lt;p style=&quot;margin:0px;margin-top:4px;text-align:center;&quot;&gt;&lt;b style=&quot;background-color: initial;&quot;&gt;Application&lt;/b&gt;&lt;br&gt;&lt;/p&gt;&lt;hr size=&quot;1&quot;&gt;&lt;p style=&quot;margin:0px;margin-left:4px;&quot;&gt;&amp;nbsp;&lt;br&gt;&lt;/p&gt;&lt;hr size=&quot;1&quot;&gt;&lt;p style=&quot;margin:0px;margin-left:4px;&quot;&gt;&lt;br&gt;&lt;/p&gt;" style="verticalAlign=top;align=left;overflow=fill;fontSize=12;fontFamily=Verdana;html=1;sketch=0;strokeWidth=2;" vertex="1" parent="WIyWlLk6GJQsqaUBKTNV-1">
          <mxGeometry x="718.57" y="607.5" width="153" height="90" as="geometry" />
        </mxCell>
        <mxCell id="yHlTKHoaQ9vVoxRMhvKe-38" value="" style="endArrow=block;html=1;sketch=0;fontFamily=Verdana;curved=1;endFill=0;exitX=0.5;exitY=0;exitDx=0;exitDy=0;" edge="1" parent="WIyWlLk6GJQsqaUBKTNV-1" source="yHlTKHoaQ9vVoxRMhvKe-36" target="fq_hDrngQvyFMPAxzldU-25">
          <mxGeometry width="50" height="50" relative="1" as="geometry">
            <mxPoint x="707" y="560" as="sourcePoint" />
            <mxPoint x="738" y="517" as="targetPoint" />
          </mxGeometry>
        </mxCell>
        <mxCell id="yHlTKHoaQ9vVoxRMhvKe-39" value="" style="endArrow=block;html=1;sketch=0;fontFamily=Verdana;curved=1;endFill=0;dashed=1;exitX=0.25;exitY=1;exitDx=0;exitDy=0;" edge="1" parent="WIyWlLk6GJQsqaUBKTNV-1" source="yHlTKHoaQ9vVoxRMhvKe-36" target="fq_hDrngQvyFMPAxzldU-20">
          <mxGeometry width="50" height="50" relative="1" as="geometry">
            <mxPoint x="696" y="652" as="sourcePoint" />
            <mxPoint x="789" y="744" as="targetPoint" />
          </mxGeometry>
        </mxCell>
        <mxCell id="yHlTKHoaQ9vVoxRMhvKe-42" value="&lt;p style=&quot;margin:0px;margin-top:4px;text-align:center;&quot;&gt;&lt;b&gt;ProductShipment&lt;/b&gt;&lt;/p&gt;&lt;hr size=&quot;1&quot;&gt;&lt;p style=&quot;margin:0px;margin-left:4px;&quot;&gt;&amp;nbsp;+ shippedFrom: LocalUnit&lt;br&gt;&lt;/p&gt;&lt;p style=&quot;margin:0px;margin-left:4px;&quot;&gt;&amp;nbsp;+ shippedTo: LocalUnit&lt;/p&gt;&lt;hr size=&quot;1&quot;&gt;&lt;p style=&quot;margin:0px;margin-left:4px;&quot;&gt;&lt;br&gt;&lt;/p&gt;" style="verticalAlign=top;align=left;overflow=fill;fontSize=12;fontFamily=Verdana;html=1;sketch=0;strokeWidth=2;" vertex="1" parent="WIyWlLk6GJQsqaUBKTNV-1">
          <mxGeometry x="487" y="240.75" width="180" height="77.5" as="geometry" />
        </mxCell>
        <mxCell id="yHlTKHoaQ9vVoxRMhvKe-43" value="" style="endArrow=classic;html=1;sketch=0;fontFamily=Verdana;curved=1;entryX=1;entryY=0;entryDx=0;entryDy=0;" edge="1" parent="WIyWlLk6GJQsqaUBKTNV-1" source="yHlTKHoaQ9vVoxRMhvKe-42" target="fq_hDrngQvyFMPAxzldU-55">
          <mxGeometry width="50" height="50" relative="1" as="geometry">
            <mxPoint x="25" y="305" as="sourcePoint" />
            <mxPoint x="180" y="407" as="targetPoint" />
          </mxGeometry>
        </mxCell>
        <mxCell id="yHlTKHoaQ9vVoxRMhvKe-44" value="&lt;p style=&quot;margin:0px;margin-top:4px;text-align:center;&quot;&gt;&lt;i&gt;«enumeration»&lt;/i&gt;&lt;br&gt;&lt;b&gt;ProductShipment&lt;/b&gt;&lt;/p&gt;&lt;p style=&quot;margin:0px;margin-top:4px;text-align:center;&quot;&gt;&lt;b&gt;Status&lt;/b&gt;&lt;/p&gt;&lt;hr size=&quot;1&quot;&gt;&lt;p style=&quot;margin:0px;margin-left:4px;&quot;&gt;+ item: EnumeratedItem&lt;br&gt;&lt;/p&gt;&lt;hr size=&quot;1&quot;&gt;&lt;p style=&quot;margin:0px;margin-left:4px;&quot;&gt;&lt;br&gt;&lt;/p&gt;" style="verticalAlign=top;align=left;overflow=fill;fontSize=12;fontFamily=Verdana;html=1;sketch=0;strokeWidth=2;" vertex="1" parent="WIyWlLk6GJQsqaUBKTNV-1">
          <mxGeometry x="520" y="117" width="180" height="90" as="geometry" />
        </mxCell>
        <mxCell id="yHlTKHoaQ9vVoxRMhvKe-45" value="" style="endArrow=classic;html=1;sketch=0;fontFamily=Verdana;curved=1;exitX=0.5;exitY=0;exitDx=0;exitDy=0;" edge="1" parent="WIyWlLk6GJQsqaUBKTNV-1" source="yHlTKHoaQ9vVoxRMhvKe-42" target="yHlTKHoaQ9vVoxRMhvKe-44">
          <mxGeometry width="50" height="50" relative="1" as="geometry">
            <mxPoint x="548" y="396" as="sourcePoint" />
            <mxPoint x="409" y="429" as="targetPoint" />
          </mxGeometry>
        </mxCell>
        <mxCell id="yHlTKHoaQ9vVoxRMhvKe-47" value="" style="endArrow=block;html=1;sketch=0;fontFamily=Verdana;curved=1;endFill=0;dashed=1;exitX=-0.004;exitY=0.859;exitDx=0;exitDy=0;exitPerimeter=0;entryX=1;entryY=0.75;entryDx=0;entryDy=0;" edge="1" parent="WIyWlLk6GJQsqaUBKTNV-1" source="fq_hDrngQvyFMPAxzldU-142" target="fq_hDrngQvyFMPAxzldU-135">
          <mxGeometry width="50" height="50" relative="1" as="geometry">
            <mxPoint x="892" y="920" as="sourcePoint" />
            <mxPoint x="629" y="946" as="targetPoint" />
          </mxGeometry>
        </mxCell>
        <mxCell id="fq_hDrngQvyFMPAxzldU-141" value="&lt;p style=&quot;margin:0px;margin-top:4px;text-align:center;&quot;&gt;&lt;span&gt;BotanicalCrop&lt;/span&gt;&lt;/p&gt;&lt;hr size=&quot;1&quot;&gt;&lt;p style=&quot;margin:0px;margin-left:4px;&quot;&gt;&amp;nbsp;&lt;br&gt;&lt;/p&gt;&lt;hr size=&quot;1&quot;&gt;&lt;p style=&quot;margin:0px;margin-left:4px;&quot;&gt;&lt;br&gt;&lt;/p&gt;" style="verticalAlign=top;align=left;overflow=fill;fontSize=12;fontFamily=Verdana;html=1;sketch=0;strokeWidth=2;fontStyle=1" parent="WIyWlLk6GJQsqaUBKTNV-1" vertex="1">
          <mxGeometry x="696" y="877.5" width="130" height="70" as="geometry" />
        </mxCell>
        <mxCell id="yHlTKHoaQ9vVoxRMhvKe-48" value="" style="endArrow=classic;html=1;sketch=0;fontFamily=Verdana;curved=1;endFill=1;exitX=-0.001;exitY=0.693;exitDx=0;exitDy=0;exitPerimeter=0;" edge="1" parent="WIyWlLk6GJQsqaUBKTNV-1" source="yHlTKHoaQ9vVoxRMhvKe-36" target="yHlTKHoaQ9vVoxRMhvKe-5">
          <mxGeometry width="50" height="50" relative="1" as="geometry">
            <mxPoint x="541" y="616" as="sourcePoint" />
            <mxPoint x="268" y="655" as="targetPoint" />
          </mxGeometry>
        </mxCell>
        <mxCell id="yHlTKHoaQ9vVoxRMhvKe-49" value="&lt;p style=&quot;margin:0px;margin-top:4px;text-align:center;&quot;&gt;&lt;b&gt;AnimalCategory&lt;/b&gt;&lt;/p&gt;&lt;p style=&quot;margin:0px;margin-top:4px;text-align:center;&quot;&gt;&lt;b&gt;PRIF&lt;/b&gt;&lt;/p&gt;&lt;hr size=&quot;1&quot;&gt;&lt;p style=&quot;margin:0px;margin-left:4px;&quot;&gt;&amp;nbsp;&amp;nbsp;&lt;br&gt;&lt;/p&gt;&lt;hr size=&quot;1&quot;&gt;&lt;p style=&quot;margin:0px;margin-left:4px;&quot;&gt;&lt;br&gt;&lt;/p&gt;" style="verticalAlign=top;align=left;overflow=fill;fontSize=12;fontFamily=Verdana;html=1;sketch=0;strokeWidth=2;" vertex="1" parent="WIyWlLk6GJQsqaUBKTNV-1">
          <mxGeometry x="910" y="300" width="122.5" height="73" as="geometry" />
        </mxCell>
        <mxCell id="yHlTKHoaQ9vVoxRMhvKe-50" value="&lt;p style=&quot;margin:0px;margin-top:4px;text-align:center;&quot;&gt;&lt;/p&gt;&lt;p style=&quot;margin:0px;margin-left:4px;&quot;&gt;&lt;b&gt;IndividualAnimal&lt;/b&gt;&amp;nbsp;&amp;nbsp;&lt;br&gt;&lt;/p&gt;&lt;hr size=&quot;1&quot;&gt;&lt;p style=&quot;margin:0px;margin-left:4px;&quot;&gt;&lt;br&gt;&lt;/p&gt;" style="verticalAlign=top;align=left;overflow=fill;fontSize=12;fontFamily=Verdana;html=1;sketch=0;strokeWidth=2;" vertex="1" parent="WIyWlLk6GJQsqaUBKTNV-1">
          <mxGeometry x="773" y="300" width="122.5" height="73" as="geometry" />
        </mxCell>
        <mxCell id="yHlTKHoaQ9vVoxRMhvKe-52" value="" style="endArrow=classic;html=1;sketch=0;fontFamily=Verdana;curved=1;endFill=1;entryX=0.418;entryY=0.992;entryDx=0;entryDy=0;entryPerimeter=0;" edge="1" parent="WIyWlLk6GJQsqaUBKTNV-1" source="yHlTKHoaQ9vVoxRMhvKe-49" target="fq_hDrngQvyFMPAxzldU-60">
          <mxGeometry width="50" height="50" relative="1" as="geometry">
            <mxPoint x="680" y="380" as="sourcePoint" />
            <mxPoint x="789" y="257" as="targetPoint" />
          </mxGeometry>
        </mxCell>
        <mxCell id="yHlTKHoaQ9vVoxRMhvKe-54" value="" style="endArrow=block;html=1;sketch=0;fontFamily=Verdana;curved=1;endFill=0;dashed=1;entryX=1.004;entryY=0.819;entryDx=0;entryDy=0;entryPerimeter=0;" edge="1" parent="WIyWlLk6GJQsqaUBKTNV-1" source="yHlTKHoaQ9vVoxRMhvKe-49" target="fq_hDrngQvyFMPAxzldU-143">
          <mxGeometry width="50" height="50" relative="1" as="geometry">
            <mxPoint x="820" y="170" as="sourcePoint" />
            <mxPoint x="817" y="197" as="targetPoint" />
          </mxGeometry>
        </mxCell>
        <mxCell id="yHlTKHoaQ9vVoxRMhvKe-55" value="" style="endArrow=block;html=1;sketch=0;fontFamily=Verdana;curved=1;endFill=0;dashed=1;exitX=0.5;exitY=0;exitDx=0;exitDy=0;" edge="1" parent="WIyWlLk6GJQsqaUBKTNV-1" source="yHlTKHoaQ9vVoxRMhvKe-50" target="fq_hDrngQvyFMPAxzldU-143">
          <mxGeometry width="50" height="50" relative="1" as="geometry">
            <mxPoint x="946" y="310" as="sourcePoint" />
            <mxPoint x="900" y="263" as="targetPoint" />
          </mxGeometry>
        </mxCell>
        <mxCell id="yHlTKHoaQ9vVoxRMhvKe-56" value="0-1" style="text;html=1;strokeColor=none;fillColor=none;align=center;verticalAlign=middle;whiteSpace=wrap;rounded=0;" vertex="1" parent="WIyWlLk6GJQsqaUBKTNV-1">
          <mxGeometry x="667" y="491.35" width="60" height="30" as="geometry" />
        </mxCell>
        <mxCell id="yHlTKHoaQ9vVoxRMhvKe-57" value="" style="endArrow=classic;html=1;sketch=0;fontFamily=Verdana;curved=1;endFill=1;exitX=1;exitY=1;exitDx=0;exitDy=0;entryX=0.08;entryY=0.003;entryDx=0;entryDy=0;entryPerimeter=0;" edge="1" parent="WIyWlLk6GJQsqaUBKTNV-1" source="fq_hDrngQvyFMPAxzldU-25" target="9_fdUrSxjmN1W93VfHhp-12">
          <mxGeometry width="50" height="50" relative="1" as="geometry">
            <mxPoint x="938" y="492" as="sourcePoint" />
            <mxPoint x="1040" y="594" as="targetPoint" />
          </mxGeometry>
        </mxCell>
        <mxCell id="yHlTKHoaQ9vVoxRMhvKe-58" value="1-2" style="text;html=1;strokeColor=none;fillColor=none;align=center;verticalAlign=middle;whiteSpace=wrap;rounded=0;" vertex="1" parent="WIyWlLk6GJQsqaUBKTNV-1">
          <mxGeometry x="1010" y="667.5" width="60" height="30" as="geometry" />
        </mxCell>
      </root>
    </mxGraphModel>
  </diagram>
</mxfile>
